HIERARCHY
ROOT hip
{
	OFFSET 0.000000 0.000000 0.000000 
	CHANNELS 6 Xposition Yposition Zposition Xrotation Zrotation Yrotation
	JOINT abdomen
	{
		OFFSET 0.000000 3.402643 0.000000 
		CHANNELS 3 Xrotation Zrotation Yrotation
		JOINT chest
		{
			OFFSET 0.000000 8.438565 -0.680529 
			CHANNELS 3 Xrotation Zrotation Yrotation
			JOINT neck
			{
				OFFSET 0.000000 10.207942 -0.272212 
				CHANNELS 3 Xrotation Zrotation Yrotation
				JOINT head
				{
					OFFSET 0.000000 3.130431 0.000000 
					CHANNELS 3 Xrotation Zrotation Yrotation
					End Site
					{
						OFFSET 0.000000 3.130435 0.000000 
					}
				}
			}
			JOINT lCollar
			{
				OFFSET 3.470700 6.669187 -0.816635 
				CHANNELS 3 Yrotation Zrotation Xrotation
				JOINT lShldr
				{
					OFFSET 3.198488 0.000000 0.000000 
					CHANNELS 3 Zrotation Yrotation Xrotation
					JOINT lForeArm
					{
						OFFSET 10.139888 0.000000 0.000000 
						CHANNELS 3 Yrotation Zrotation Xrotation
						JOINT lHand
						{
							OFFSET 8.370511 0.000000 0.000000 
							CHANNELS 3 Zrotation Yrotation Xrotation
							End Site
							{
								OFFSET 4.083176 0.000000 0.000000 
							}
						}
					}
				}
			}
			JOINT rCollar
			{
				OFFSET -3.470700 6.669187 -0.816635 
				CHANNELS 3 Yrotation Zrotation Xrotation
				JOINT rShldr
				{
					OFFSET -3.198488 0.000000 0.000000 
					CHANNELS 3 Zrotation Yrotation Xrotation
					JOINT rForeArm
					{
						OFFSET -10.139888 0.000000 0.000000 
						CHANNELS 3 Yrotation Zrotation Xrotation
						JOINT rHand
						{
							OFFSET -8.370511 0.000000 0.000000 
							CHANNELS 3 Zrotation Yrotation Xrotation
							End Site
							{
								OFFSET -4.083176 0.000000 0.000000 
							}
						}
					}
				}
			}
		}
	}
	JOINT lThigh
	{
		OFFSET 5.308129 -1.633274 1.361059 
		CHANNELS 3 Xrotation Zrotation Yrotation
		JOINT lShin
		{
			OFFSET -2.041588 -20.007561 0.000000 
			CHANNELS 3 Xrotation Zrotation Yrotation
			JOINT lFoot
			{
				OFFSET 0.000000 -19.190928 -1.224953 
				CHANNELS 3 Xrotation Yrotation Zrotation
				End Site
				{
					OFFSET 0.000000 -2.449906 4.627600 
				}
			}
		}
	}
	JOINT rThigh
	{
		OFFSET -5.308129 -1.633274 1.361059 
		CHANNELS 3 Xrotation Zrotation Yrotation
		JOINT rShin
		{
			OFFSET 2.041588 -20.007561 0.000000 
			CHANNELS 3 Xrotation Zrotation Yrotation
			JOINT rFoot
			{
				OFFSET 0.000000 -19.190928 -1.224953 
				CHANNELS 3 Xrotation Yrotation Zrotation
				End Site
				{
					OFFSET 0.000000 -2.449906 4.627600 
				}
			}
		}
	}
}
MOTION
Frames: 20
Frame Time: 0.011111
29.871872 50.665920 -5.314105 6.901491 4.027279 1.106947 18.382610 -7.128678 -2.969104 -23.856848 2.677782 -0.125270 -8.320467 -0.026051 -0.129895 21.860477 5.141533 1.063977 -7.198545 -2.255300 -0.324897 -55.277836 -50.908066 30.848631 -57.496151 9.016728 11.290568 8.524705 12.647240 -32.532604 5.113256 1.510366 0.237230 76.897614 -3.724601 -0.338162 47.190342 -7.014025 7.050480 -8.533279 -12.636986 31.976711 11.586143 -2.156851 0.806741 14.291544 -5.957675 -2.710163 -19.974102 -11.265853 -7.075492 -41.867176 -8.221401 -1.302160 34.977673 5.009396 5.460772 -21.484100 6.537545 5.224205 
29.874180 50.566566 -4.717010 6.864001 4.243272 1.277586 18.168850 -7.143254 -3.206939 -23.612526 2.743496 -0.185229 -8.152925 -0.309749 -0.046090 21.824511 5.498465 1.256072 -7.198545 -2.255300 -0.324897 -54.892250 -51.546703 31.379204 -58.219746 9.105024 11.618287 8.524705 12.647240 -32.034557 5.113256 1.510366 0.237230 76.826118 -3.889030 -0.590575 47.065372 -6.975117 6.996663 -8.533279 -12.636986 32.015770 13.463784 -2.352561 0.519791 12.159795 -5.985260 -2.422544 -19.813896 -10.840232 -6.888212 -42.645367 -8.369306 -0.706366 34.030090 5.095629 5.363129 -21.648628 6.784753 5.334079 
29.886391 50.447742 -4.074036 6.633770 4.786765 1.451234 18.109114 -7.526469 -3.666174 -23.358530 2.916348 -0.268024 -8.063577 -0.092008 -0.041160 21.743914 5.065171 1.208086 -7.198545 -2.255300 -0.324897 -54.583008 -52.075760 31.673267 -58.963158 9.177574 11.933644 8.524705 12.647240 -31.614634 5.113256 1.510366 0.237230 76.630066 -4.370590 -0.207197 47.137890 -6.996647 7.032868 -8.533279 -12.636986 32.640774 15.855130 -2.869826 -0.067817 9.700990 -6.024133 -2.056364 -19.420952 -10.308628 -6.612502 -43.248688 -8.895498 -0.252631 33.109650 5.120833 5.230678 -21.150843 7.004875 5.403245 
29.882761 50.303509 -3.486515 6.281929 4.954591 1.763529 18.435583 -7.521377 -3.914604 -23.260721 2.904376 -0.330983 -8.444616 0.256369 -0.088204 22.092890 4.607702 1.087182 -7.198545 -2.255300 -0.324897 -54.264870 -52.723679 32.025497 -59.719063 9.247581 12.272467 8.524705 12.647240 -31.643932 5.113256 1.510366 0.237230 76.601105 -4.756439 0.367570 47.334740 -7.049406 7.107520 -8.533279 -12.636986 33.578274 18.190176 -2.919207 -0.648444 7.232160 -6.024261 -1.715634 -18.923443 -9.769301 -6.346858 -43.511559 -9.130078 0.106371 32.102798 5.189146 5.111588 -20.651791 6.998842 5.355952 
29.850744 50.148041 -2.925728 5.947094 4.863467 2.047466 18.898291 -7.297941 -4.036422 -23.221704 2.990930 -0.371394 -8.573618 0.286836 -0.147963 22.095974 4.420815 0.928555 -7.198545 -2.255300 -0.324897 -53.954193 -53.382957 32.709286 -60.485867 9.308846 12.623591 8.524705 12.647240 -31.341198 5.113256 1.510366 0.237230 76.722214 -4.881444 0.177702 47.531677 -7.101451 7.181449 -8.533279 -12.636986 33.793118 20.283728 -2.703237 -1.105659 4.996087 -6.025282 -1.376964 -18.759953 -9.098780 -6.082544 -43.507114 -9.061039 0.363233 31.016327 5.252868 4.964089 -20.325525 7.049061 5.369294 
29.809814 50.004135 -2.360980 5.867345 4.754189 2.176610 18.986559 -7.098566 -4.072588 -23.261066 3.184696 -0.410298 -8.555203 0.350012 -0.187732 22.154781 4.053374 0.791977 -7.198545 -2.255300 -0.324897 -53.862751 -53.810726 33.224968 -61.209602 9.354147 12.946535 8.524705 12.647240 -31.087288 5.113256 1.510366 0.237230 76.668137 -5.309146 0.196160 47.717865 -7.148470 7.256897 -8.533279 -12.636986 34.007957 23.521292 -2.518776 -1.520179 -0.118177 -5.969803 -0.671684 -17.464031 -7.593980 -5.397623 -43.883305 -8.895658 0.531309 30.195908 5.307411 4.875887 -20.106945 7.148003 5.397371 
29.780106 49.861542 -1.830560 6.059172 4.347463 2.346901 18.889668 -6.457416 -3.933264 -23.437006 3.114300 -0.436710 -8.829195 0.376730 -0.203431 22.512320 3.864642 0.751497 -7.198545 -2.255300 -0.324897 -53.815247 -54.134361 33.314133 -62.019299 9.395598 13.308931 8.524705 12.647240 -31.165419 5.113256 1.510366 0.237230 76.516373 -5.933402 0.917458 47.977177 -7.214030 7.350198 -8.533279 -12.636986 34.828274 23.803734 -2.020729 -1.520396 -0.118169 -5.969802 -0.671684 -17.775642 -7.717920 -5.463770 -44.494141 -8.455688 0.885600 29.355562 5.356448 4.774226 -20.263678 6.395727 5.106811 
29.837870 49.690235 -1.157880 5.751328 5.205392 2.898744 19.069275 -6.938124 -4.557075 -22.977327 3.123135 -0.538971 -9.025595 0.081752 -0.190353 22.359589 4.065827 0.750129 -7.198545 -2.255300 -0.324897 -53.698540 -54.589283 33.119839 -62.968929 9.433727 13.746055 8.524705 12.647240 -31.429089 5.113256 1.510366 0.237230 76.445869 -6.107530 1.044560 48.153816 -7.261230 7.425064 -8.533279 -12.636986 35.160301 25.211248 -2.694686 -2.564476 -0.118188 -5.969800 -0.671684 -17.962738 -8.025399 -5.601698 -44.633076 -9.735143 0.757931 28.657154 5.385091 4.660003 -19.439657 6.499370 5.112393 
29.837870 49.522892 -0.546924 5.612688 5.061754 2.920651 19.080383 -6.544402 -4.456657 -22.693731 3.154479 -0.543907 -8.996684 -0.141698 -0.165882 22.078629 4.188354 0.765499 -7.198545 -2.255300 -0.324897 -53.547237 -54.940052 33.534554 -63.917717 9.453991 14.186315 8.524705 12.647240 -31.165419 5.113256 1.510366 0.237230 76.323639 -6.257504 1.066504 48.267521 -7.286232 7.464603 -8.533279 -12.636986 35.228661 26.037186 -2.450103 -2.587331 -0.118183 -5.969615 -0.661932 -18.094868 -8.549349 -5.803918 -44.893581 -9.510380 1.165544 28.115402 5.419699 4.581339 -19.247822 6.721807 5.193709 
29.797272 49.344654 0.001650 5.580222 4.816998 3.129552 19.277897 -6.140848 -4.454043 -22.948097 3.238893 -0.590092 -8.966681 0.025240 -0.173589 22.003185 3.871902 0.704282 -7.198545 -2.255300 -0.324897 -53.307045 -55.059635 34.564777 -64.801399 9.455844 14.594613 8.524705 12.647240 -30.169321 5.113256 1.510366 0.237230 76.289070 -6.683194 1.121543 48.383114 -7.323977 7.518771 -8.533279 -12.636986 35.121239 26.610292 -2.021510 -2.645089 -0.106995 -5.950805 -0.693432 -18.233841 -8.876306 -5.941197 -45.362099 -9.207623 1.748111 27.883528 5.438409 4.554877 -19.956652 6.516060 5.153231 
29.815096 49.163445 0.668059 5.570374 4.982657 3.448950 19.124203 -5.993997 -4.612834 -22.791521 3.170357 -0.637729 -9.037207 0.295935 -0.273475 21.893682 3.376851 0.454975 -7.198545 -2.255300 -0.324897 -53.391521 -55.160351 34.635998 -65.546257 9.446476 14.943093 8.524705 12.647240 -30.237688 5.113256 1.510366 0.237230 76.414749 -6.945205 0.872566 48.518112 -7.357965 7.576246 -8.533279 -12.636986 35.023582 27.460016 -2.031568 -3.098938 -0.106921 -5.950809 -0.693431 -18.364731 -9.193609 -6.071364 -45.645336 -9.559104 2.010185 27.615108 5.434286 4.539225 -20.139755 6.335519 5.071705 
29.815428 48.992138 1.307731 5.727201 5.312442 3.996936 18.948566 -6.070047 -4.969568 -22.635044 3.217874 -0.737831 -9.197613 0.402736 -0.404592 21.885740 3.079167 0.162736 -7.198545 -2.255300 -0.324897 -53.322708 -55.291687 34.958057 -66.323830 9.428271 15.307108 8.524705 12.647240 -30.130259 5.113256 1.510366 0.237230 76.524666 -7.149925 0.827662 48.756294 -7.410885 7.664025 -8.533279 -12.636986 35.492336 28.121674 -2.021424 -3.827112 -0.107449 -5.970328 -0.692049 -18.278528 -9.631135 -6.225508 -46.312962 -10.126147 2.723955 27.583544 5.443754 4.538728 -20.501076 6.578563 5.190903 
29.817074 48.793110 1.950375 5.793268 5.453830 4.597132 18.935200 -5.844259 -5.344967 -22.458994 3.275764 -0.846571 -9.531523 0.421608 -0.457746 22.027468 2.842977 0.000822 -7.198545 -2.255300 -0.324897 -53.016808 -55.443058 35.689640 -67.140312 9.391074 15.698253 8.524705 12.647240 -29.270885 5.113256 1.510366 0.237230 76.318161 -7.436162 1.348704 48.985836 -7.470973 7.759408 -8.533279 -12.636986 36.254055 28.812517 -1.865138 -4.511701 -0.117170 -5.970004 -0.682437 -18.299410 -9.854830 -6.301459 -46.855988 -10.545693 3.168125 27.873899 5.438400 4.544294 -21.052588 6.575587 5.234279 
29.816088 48.608273 2.587738 5.778831 5.295942 5.001317 19.054548 -5.302850 -5.576305 -22.380753 3.352243 -0.961101 -10.057694 0.541131 -0.434351 22.345110 2.404067 -0.015855 -7.198545 -2.255300 -0.324897 -53.584038 -55.344872 34.924042 -67.797348 9.351707 16.004101 8.524705 12.647240 -30.032604 5.113256 1.510366 0.237230 75.988609 -7.676058 1.744578 49.121170 -7.502809 7.808088 -8.533279 -12.636986 36.634914 29.455406 -1.533169 -4.864184 -0.118183 -5.969801 -0.671684 -18.386362 -9.857004 -6.324129 -47.132622 -10.604273 3.147305 28.214933 5.414002 4.617776 -21.313658 5.458272 4.752584 
29.802881 48.484165 3.208927 5.822979 5.170568 5.425387 19.255865 -4.848772 -5.771324 -22.615541 3.453221 -1.065624 -10.468190 0.663589 -0.456230 22.643818 2.041912 -0.123578 -7.198545 -2.255300 -0.324897 -54.111298 -55.171917 34.490574 -68.474213 9.302192 16.332930 8.524705 12.647240 -30.618540 5.113256 1.510366 0.237230 75.855942 -7.915420 1.433524 49.162987 -7.514149 7.826655 -8.533279 -12.636986 36.517727 30.066008 -1.181774 -5.203625 -0.106565 -5.950811 -0.693425 -18.350245 -9.761229 -6.287854 -47.325974 -10.750604 2.956301 28.646910 5.385008 4.668816 -21.575603 5.034532 4.589573 
29.791002 48.340252 3.834407 5.993681 4.997786 5.806907 19.233204 -4.333313 -5.776136 -22.742683 3.459148 -1.122366 -10.618877 0.591932 -0.568523 22.483999 1.909944 -0.396767 -7.198545 -2.255300 -0.324897 -54.264801 -55.141510 34.767178 -69.119003 9.247649 16.649616 8.524705 12.647240 -30.511118 5.113256 1.510366 0.237230 75.680603 -8.218036 1.522749 49.235020 -7.525786 7.847595 -8.533279 -12.636986 36.898582 30.577978 -0.771619 -5.500955 -0.117246 -5.950285 -0.672048 -18.343754 -9.812148 -6.304902 -47.595119 -10.800189 2.826524 29.177164 5.356020 4.747813 -22.030483 5.232327 4.685461 
29.785059 48.166969 4.473420 6.196772 5.048910 6.068245 19.181179 -4.059206 -5.831114 -22.781809 3.476705 -1.164363 -10.582441 0.539345 -0.639096 21.963673 1.759104 -0.600843 -7.198545 -2.255300 -0.324897 -54.715027 -54.919029 34.477844 -69.635612 9.196503 16.904142 8.524705 12.647240 -31.028700 5.113256 1.510366 0.237230 75.522697 -8.499219 1.709016 49.307827 -7.544315 7.886948 -8.533279 -12.636986 37.230621 31.124483 -0.615419 -5.794961 -0.117195 -5.950287 -0.672047 -18.242481 -9.850919 -6.305045 -47.998211 -10.955363 2.877521 29.788321 5.316360 4.822082 -22.135809 5.074543 4.606094 
29.776148 47.984772 5.139498 6.352372 5.346307 6.441022 19.226776 -4.088592 -6.042084 -22.830751 3.532737 -1.217966 -10.604813 0.436687 -0.708763 21.474464 1.884133 -0.736527 -7.198545 -2.255300 -0.324897 -54.935238 -54.717197 34.790840 -70.046265 9.151857 17.107616 8.524705 12.647240 -31.067760 5.113256 1.510366 0.237230 75.619576 -8.577692 1.060655 49.225346 -7.527598 7.846006 -8.533279 -12.636986 36.703274 31.768852 -0.644884 -6.330302 -0.107399 -5.950613 -0.683685 -17.780113 -9.652026 -6.169623 -48.579330 -11.356615 3.258974 30.535566 5.287510 4.919822 -21.661566 5.452906 4.774251 
29.751390 47.806866 5.828681 6.494575 5.304399 6.766235 19.203753 -3.779986 -6.087918 -22.693731 3.495166 -1.257213 -10.900208 0.400899 -0.773591 21.209951 1.990527 -0.869341 -7.198545 -2.255300 -0.324897 -54.890827 -54.601456 35.352367 -70.498444 9.097934 17.327194 8.524705 12.647240 -30.833385 5.113256 1.510366 0.237230 75.727448 -8.478324 0.355845 49.131813 -7.507397 7.816994 -8.533279 -12.636986 36.263817 32.332943 -0.371650 -6.632636 -0.106330 -5.950816 -0.693422 -17.392645 -9.380962 -6.028186 -48.995529 -11.375561 3.356757 31.473932 5.229122 5.046444 -20.005333 5.685184 4.829598 
29.712444 47.722034 6.502682 6.683503 4.949495 6.931370 19.216351 -3.090814 -5.984468 -22.723089 3.532410 -1.299197 -11.360248 0.602378 -0.831426 21.089748 1.472029 -1.048480 -7.198545 -2.255300 -0.324897 -54.928066 -54.316204 35.392467 -71.001152 9.031252 17.580891 8.524705 12.647240 -30.774790 5.113256 1.510366 0.237230 75.576134 -8.444679 -0.078237 49.037323 -7.480633 7.779489 -8.533279 -12.636986 35.922020 32.732826 0.117059 -6.582154 -0.107345 -5.950617 -0.683684 -17.016523 -9.096133 -5.869770 -49.231426 -11.043803 2.742592 32.681095 5.150245 5.181311 -17.697033 3.719825 4.045748 
